<?xml version="1.0" standalone="no"?>
<!DOCTYPE svg PUBLIC "-//W3C//DTD SVG 20010904//EN"
 "http://www.w3.org/TR/2001/REC-SVG-20010904/DTD/svg10.dtd">
<svg version="1.0" xmlns="http://www.w3.org/2000/svg"
 width="155.000000pt" height="155.000000pt" viewBox="0 0 155.000000 155.000000"
 preserveAspectRatio="xMidYMid meet">
<metadata>
Created by potrace 1.11, written by Peter Selinger 2001-2013
</metadata>
<g transform="translate(0.000000,155.000000) scale(0.100000,-0.100000)"
fill="#000000" stroke="none">
<path d="M0 775 l0 -775 775 0 775 0 0 775 0 775 -775 0 -775 0 0 -775z m578
578 c89 -66 97 -178 18 -252 l-26 -24 0 -204 c0 -112 3 -203 8 -203 17 1 256
90 277 104 42 28 76 82 85 138 8 49 7 55 -14 74 -43 38 -58 72 -58 124 0 153
193 219 285 98 39 -50 44 -106 17 -163 -12 -25 -30 -50 -40 -55 -12 -6 -20
-27 -25 -67 -23 -189 -111 -280 -348 -362 -71 -25 -139 -55 -152 -67 -13 -12
-27 -39 -31 -59 -6 -32 -3 -40 19 -59 57 -48 74 -142 37 -204 -81 -132 -283
-87 -298 67 -5 53 10 91 52 130 l26 24 0 340 0 340 -34 38 c-75 83 -53 202 46
253 42 21 120 16 156 -11z"/>
<path d="M455 1289 c-49 -28 -59 -78 -24 -123 42 -54 139 -18 139 52 0 57 -67
98 -115 71z"/>
<path d="M976 1169 c-20 -16 -26 -29 -26 -59 0 -87 121 -110 149 -29 28 81
-55 141 -123 88z"/>
<path d="M432 307 c-12 -13 -22 -36 -22 -51 0 -37 50 -88 82 -82 13 3 26 5 31
5 4 1 16 10 27 21 26 26 26 70 -1 104 -27 35 -86 36 -117 3z"/>
</g>
</svg>
